<svg id="Layer_1" data-name="Layer 1" xmlns="http://www.w3.org/2000/svg" viewBox="0 0 785.17 853.12"><defs><style>.cls-1{fill:#fff;}</style></defs><title>rdk-logo</title><path class="cls-1" d="M885.72,926.56c-12.35,0-28.14-1.37-43.24-1.37C710,919.7,659.23,886.07,606.38,803,568,746.74,527.45,669.87,491.08,604.67c-21.28-36.38-42.56-51.48-92.66-51.48H362.73V744c0,107.07,11.67,115.31,109.82,123.55v48H107.41v-48C206.93,859.3,221.35,851.06,221.35,744V242.28c0-105.7-13-113.93-108.45-120.8v-48H457.45c102.26,0,165.4,11.67,216.19,45.3,52.17,33.63,88.54,91.28,88.54,171.58,0,113.94-70,178.45-162,217.57C621.48,545.64,670.9,632.81,710,691.83c45.3,70.7,69.32,105.7,97.46,133.84,30.89,33.63,57.65,48,85.11,57.65ZM412.15,499.66c56.28,0,96.77-10.3,126.28-35,48.05-37.06,68-88.53,68-155.11,0-134.52-87.16-183.94-170.21-183.94-33.63,0-52.16,5.49-60.4,14.41-10.29,6.87-13,20.59-13,52.85v306.8Z" transform="translate(-107.41 -73.44)"/></svg>